<?xml version="1.0" encoding="UTF-8"?>
<!DOCTYPE svg PUBLIC "-//W3C//DTD SVG 1.1//EN" "http://www.w3.org/Graphics/SVG/1.1/DTD/svg11.dtd">
<!-- Creator: CorelDRAW 2021.5 -->
<svg xmlns="http://www.w3.org/2000/svg" xml:space="preserve" width="54.8581mm" height="45.2801mm" version="1.1" style="shape-rendering:geometricPrecision; text-rendering:geometricPrecision; image-rendering:optimizeQuality; fill-rule:evenodd; clip-rule:evenodd"
viewBox="0 0 1893.75 1563.11"
 xmlns:xlink="http://www.w3.org/1999/xlink"
 xmlns:xodm="http://www.corel.com/coreldraw/odm/2003">
 <defs>
  <style type="text/css">
   <![CDATA[
    .fil0 {fill:#106EEA}
   ]]>
  </style>
 </defs>
 <g id="Layer_x0020_1">
  <metadata id="CorelCorpID_0Corel-Layer"/>
  <g id="_2076054201184">
   <path class="fil0" d="M92.15 1556.87c134.5,40.62 253.72,-130.75 365.06,-122.45 43.04,3.21 128.41,43.45 205.25,49.61 131.7,10.56 665.99,64.79 633.26,-108.37 -15.88,-84.02 -97.67,-74.26 -178.69,-73.41 -259.35,2.75 -502.35,28.57 -685.46,-98.35 -367.18,-254.51 -312.24,-778.19 98.53,-966.49 206.49,-94.66 624.89,-16.8 714.59,-52.7 64.01,-25.61 68.97,-120.16 13.17,-159.65 -51.97,-36.78 -404.33,-22.59 -494.18,-21.32 -425.77,5.99 -797.57,351.65 -761.24,795.73 25.77,314.95 182.22,382.97 167.58,453.88 -19.68,95.33 -117.32,192.28 -77.89,303.53z"/>
   <path class="fil0" d="M1436.68 117.07c-129.07,92.62 77.2,200.97 148.78,286.58 177.24,211.99 153.55,561.94 -62.11,752.94 -32.89,29.13 -118.41,66.2 -123.42,131.03 -6.8,88.2 78.67,126.21 154.44,83.59 90.57,-50.94 195.16,-171.13 246.44,-265.99 303.9,-562.22 -222.74,-1089.61 -364.14,-988.14z"/>
   <path class="fil0" d="M1269.07 1084.46c122.92,177.22 537.54,-338.73 151.56,-674.33 -79.69,-69.28 -193.35,-40.16 -156.87,68.42 13.93,41.47 100.41,75.19 139.13,167.9 33.87,81.1 15.61,182.53 -24.02,244.34 -48.29,75.31 -152.12,92.8 -109.79,193.67z"/>
   <path class="fil0" d="M1160.27 645.32c-123.66,54.48 -59.77,252.55 81.96,207.6 134.19,-42.56 65.63,-272.62 -81.96,-207.6z"/>
  </g>
 </g>
</svg>
